# xmcd
#
# Track frame offsets:
#	150
#	11712
#	24747
#	36698
#	52467
#	69764
#	83319
#	98697
#	111727
#	126170
#	142763
#	155526
#	168314
#	180868
#	195141
#	211467
#	227065
#
# Disc length: 3202 seconds
#
# Revision: 1
# Processed by: cddbd v1.5.2PL0 Copyright (c) Steve Scherf et al.
# Submitted via: audiograbber 1.83.01
#
DISCID=df0c8011
DTITLE=Ricco and Léo - Ao vivo em Cuibá - MT
DYEAR=2010
DGENRE=Country
TTITLE0=Caô
TTITLE1=A Fila Vôa
TTITLE2=Namoro Virtual
TTITLE3=Ê Saudade
TTITLE4=Casa Pra Quê
TTITLE5=Tô Bebendo Pra Esquecer
TTITLE6=Falando Sério
TTITLE7=Remédio Pra Mágoa é Pinga
TTITLE8=Toma Conta de Mim
TTITLE9=Não Jogue Fora!
TTITLE10=Agora ou Jamais
TTITLE11=Encarando a Saudade
TTITLE12=A Flecha
TTITLE13=Coisas da Vida
TTITLE14=Te Cuida coração/Eu Acabo Voltando
TTITLE15=Me Tira do Sério
TTITLE16=Tempo ao Tempo
EXTD=
EXTT0=
EXTT1=
EXTT2=
EXTT3=
EXTT4=
EXTT5=
EXTT6=
EXTT7=
EXTT8=
EXTT9=
EXTT10=
EXTT11=
EXTT12=
EXTT13=
EXTT14=
EXTT15=
EXTT16=
PLAYORDER=
